<svg
		id="book"
			version="1.2"
			baseProfile="tiny-ps"
			xmlns="http://www.w3.org/2000/svg"
			viewBox="0 0 1648 809"
			width="1648"
			height="809"
		>
			<g id="Layer">
				<path
					id="right_page"
					className="shp1"
					d="M803.1 67.08C801.36 63.89 803.47 59 807.1 59L878.23 59C880.44 59 882.23 60.79 882.23 63L882.23 767C882.23 769.21 884.02 771 886.23 771C898.39 771 925.2 771 770.36 771C769.77 771 769.13 770.86 768.59 770.6C592.22 685.39 856.14 164.56 803.1 67.08Z"
				/>
				<path
					id="left_page"
					className="shp1"
					d="M824.24 67.06C825.77 63.81 823.58 59 819.99 59L746.42 59C744.21 59 742.42 60.79 742.42 63L742.42 779C742.42 781.21 740.63 783 738.42 783L868.4 783C869.01 783 869.66 782.85 870.2 782.58C982.19 726.99 917.82 496.9 865.44 309.67C834.35 198.55 807.49 102.53 824.24 67.06Z"
				/>
				<path
					id="right_side"
					className="shp0"
					d="M871 33C871 19.75 881.75 9 895 9L922 9C935.25 9 946 19.75 946 33L946 722C946 735.25 935.25 746 922 746L895 746C881.75 746 871 735.25 871 722L871 33Z"
				/>
				<path
					id="left_side"
					className="shp0"
					d="M695 33C695 19.75 705.75 9 719 9L746 9C759.25 9 770 19.75 770 33L770 722C770 735.25 759.25 746 746 746L719 746C705.75 746 695 735.25 695 722L695 33Z"
				/>
				<path
					className="shp0"
					d="M695 728C695 713.64 706.64 702 721 702L920 702C934.36 702 946 713.64 946 728L946 765C946 779.36 934.36 791 920 791L721 791C706.64 791 695 779.36 695 765L695 728Z"
				/>
			</g>
		</svg>
	