<?xml version="1.0" standalone="no"?>
<!DOCTYPE svg PUBLIC "-//W3C//DTD SVG 20010904//EN"
 "http://www.w3.org/TR/2001/REC-SVG-20010904/DTD/svg10.dtd">
<svg version="1.0" xmlns="http://www.w3.org/2000/svg"
 width="1460.000000pt" height="966.000000pt" viewBox="0 0 1460.000000 966.000000"
 preserveAspectRatio="xMidYMid meet">
<metadata>
Created by potrace 1.16, written by Peter Selinger 2001-2019
</metadata>
<g transform="translate(0.000000,966.000000) scale(0.100000,-0.100000)"
fill="#000000" stroke="none">
<path d="M0 4830 l0 -4830 7300 0 7300 0 0 4830 0 4830 -7300 0 -7300 0 0
-4830z m2759 4743 c65 -36 98 -69 127 -130 39 -79 27 -141 -50 -258 -67 -103
-147 -192 -452 -505 -196 -201 -221 -229 -321 -355 -216 -273 -314 -414 -477
-690 -65 -108 -286 -561 -286 -584 0 -4 -14 -41 -30 -82 -49 -119 -116 -323
-165 -504 -32 -117 -36 -130 -45 -180 -6 -27 -15 -70 -20 -95 -21 -90 -58
-345 -86 -580 -12 -103 -16 -237 -16 -560 0 -418 5 -513 42 -825 15 -123 44
-311 59 -385 47 -230 74 -345 125 -530 34 -125 141 -425 200 -560 21 -47 45
-103 54 -125 102 -241 304 -591 495 -860 175 -246 337 -434 637 -740 264 -269
316 -337 346 -458 23 -88 9 -149 -58 -249 -31 -47 -50 -63 -110 -93 -71 -36
-75 -37 -153 -30 -93 8 -164 37 -281 115 -246 165 -528 460 -879 920 -251 328
-511 757 -647 1065 -70 157 -82 185 -110 255 -35 87 -106 281 -118 325 -5 17
-18 62 -30 100 -41 131 -107 389 -130 510 -4 22 -15 76 -24 120 -41 201 -52
268 -66 380 -6 50 -13 106 -16 125 -5 34 -16 157 -35 395 -16 198 -22 861 -10
1050 13 188 27 339 41 430 5 33 14 96 20 140 6 44 15 98 20 120 5 22 14 63 19
90 109 523 276 973 542 1455 85 154 314 509 399 620 77 99 154 199 224 290
103 135 307 363 453 507 222 220 459 374 608 396 62 10 157 -4 204 -30z m9181
5 c223 -88 482 -307 796 -673 414 -483 659 -843 910 -1339 192 -378 362 -867
424 -1216 6 -36 15 -83 20 -105 5 -22 14 -76 20 -120 6 -44 15 -107 20 -140
45 -299 53 -446 47 -935 -7 -552 -15 -663 -77 -1135 -17 -130 -51 -324 -80
-455 -7 -30 -15 -71 -20 -90 -13 -59 -75 -284 -110 -395 -12 -38 -25 -83 -30
-100 -36 -131 -174 -473 -261 -650 -182 -369 -340 -632 -541 -899 -406 -539
-744 -897 -982 -1038 -159 -95 -292 -116 -396 -64 -72 36 -89 51 -125 111 -50
82 -58 108 -54 187 7 128 80 238 310 465 482 474 811 915 1091 1463 35 69 72
145 82 170 11 25 31 72 46 105 15 33 35 80 43 105 9 25 30 83 47 130 17 47 49
141 72 210 57 180 82 273 138 525 6 25 14 64 19 88 15 64 28 134 41 217 7 41
16 91 21 110 5 19 9 55 9 79 0 24 4 72 9 105 12 73 28 310 40 571 14 312 -12
766 -60 1060 -28 169 -80 423 -100 490 -5 17 -23 80 -40 140 -38 136 -98 316
-139 414 -16 41 -30 78 -30 82 0 5 -14 39 -31 76 -16 38 -42 95 -57 128 -119
269 -335 633 -532 895 -55 73 -253 316 -269 330 -3 3 -28 30 -55 60 -28 30
-148 156 -267 280 -323 334 -392 430 -392 544 0 107 84 203 208 237 48 13 175
1 235 -23z m-5112 -575 c215 -175 634 -583 794 -773 618 -734 913 -1518 868
-2306 -5 -98 -14 -207 -20 -241 -5 -35 -15 -93 -20 -130 -15 -94 -37 -213 -60
-318 -4 -22 -14 -67 -20 -100 -7 -33 -16 -73 -21 -90 -22 -81 -32 -195 -20
-235 17 -57 47 -73 135 -73 58 1 84 6 128 28 128 62 238 195 370 445 70 131
142 250 156 255 8 3 24 -7 36 -22 47 -59 176 -245 215 -310 15 -26 47 -78 69
-115 44 -72 177 -328 204 -393 9 -22 26 -62 38 -90 35 -83 100 -274 126 -375
99 -375 119 -709 62 -1065 -25 -162 -107 -456 -157 -569 -10 -22 -31 -70 -47
-106 -151 -345 -417 -721 -735 -1041 -85 -85 -207 -199 -272 -254 -125 -105
-309 -246 -315 -240 -2 2 15 23 38 47 53 55 219 276 298 396 63 95 202 362
240 462 23 59 45 138 68 240 14 65 36 289 29 301 -2 3 -9 36 -15 73 -6 37 -23
97 -37 134 -29 73 -100 188 -121 197 -8 3 -43 1 -78 -5 -35 -5 -93 -15 -128
-20 -83 -13 -424 -13 -484 0 -127 28 -151 35 -213 61 -132 54 -250 148 -328
262 -90 132 -151 376 -151 606 0 101 12 240 29 356 6 33 15 94 20 135 6 41 15
107 21 145 5 39 15 160 21 270 17 293 -3 523 -70 820 -24 107 -67 230 -112
323 -27 56 -53 102 -57 102 -4 0 -40 -66 -80 -147 -180 -363 -346 -643 -662
-1118 -362 -544 -453 -695 -618 -1025 -162 -324 -255 -550 -320 -780 -90 -315
-114 -477 -115 -754 0 -168 3 -206 26 -316 15 -69 31 -138 36 -155 64 -203
168 -384 289 -503 35 -35 55 -59 45 -53 -11 5 -25 17 -33 25 -7 9 -17 16 -22
16 -11 0 -144 102 -226 172 -84 73 -186 163 -202 179 -231 239 -276 290 -393
448 -40 53 -86 119 -103 146 -17 28 -53 86 -80 130 -149 240 -279 588 -322
860 -44 271 -42 559 3 825 21 123 60 274 110 425 59 179 166 410 288 625 69
122 334 526 488 745 42 61 99 146 126 190 28 44 96 153 151 242 56 89 111 178
122 197 11 20 29 52 40 71 11 19 29 51 40 70 11 19 30 52 42 73 64 112 97 174
180 337 51 99 107 214 126 255 18 41 39 89 46 105 77 171 212 510 237 593 11
34 28 92 40 130 11 37 24 81 29 97 71 256 75 272 110 485 5 30 14 82 19 115
25 148 22 466 -5 563 -4 12 -3 22 1 22 4 0 50 -35 103 -77z"/>
</g>
</svg>
