<svg version="1.2" baseProfile="tiny-ps" xmlns="http://www.w3.org/2000/svg" viewBox="0 0 1403 630" width="1403" height="630">
	<title>howdy</title>
	<style>
		tspan { white-space:pre }
		.shp0 { fill: #000000 } 
		.shp1 { fill: #ff4f4f;stroke: #000000;stroke-width: 3 } 
	</style>
	<g id="Layer">
		<path id="Layer" fill-rule="evenodd" class="shp0" d="M198 0L256 0L256.1 11.7C256.4 42.3 257.6 87.9 258.1 88.4C258.4 88.7 273.7 84.5 292.1 79C310.4 73.5 327.6 68.7 330.1 68.4L334.6 67.8L343.9 78.6C349 84.6 367 106.5 383.9 127.2L414.5 164.9L415.1 141.7C415.5 128.9 415.8 115.7 415.9 112.2L416 106L435 106L435 155L489 155L489 106L508 106L508 222L489 222L489 173L434.7 173L435.4 190.7L436.1 208.5L447.5 219.7C454.8 226.9 459.2 231.9 459.5 233.7C461 240.7 463.8 245.8 471.7 256.2C484.1 272.6 488.9 278 492.4 279.5C507.8 286.1 515.8 289.1 519.3 289.6C521.6 290 525 291.1 526.8 292.1C528.6 293.2 531.4 294 533 294C534.6 294 536.2 294.4 536.5 295C536.8 295.5 538.4 295.7 540.1 295.3C542.5 294.9 543.4 295.2 544.7 296.9C546.1 299 546.3 299 547.6 297.3C548.9 295.6 549.1 295.7 551.5 298.5C552.9 300.1 554 301.9 554 302.4C554 302.8 554.9 302.2 556 300.9L558 298.5L560 300.9C561.2 302.2 562.5 304 563.1 304.9C563.8 306.1 564.3 306.2 564.6 305.2C565.6 302.9 567.5 304 569.8 308.4C571.1 310.8 573.2 313.2 574.5 313.8C577 315 592 337 601.2 353C607.3 363.8 608.3 366 607 366C605.6 366 601.2 359.7 589.8 341.1C580.3 325.7 571 314 568.4 314C567.7 314 567.3 313.2 567.4 312.3C567.5 311.1 566.7 310.6 564.5 310.6C562.1 310.5 561.2 309.8 559.9 307.3C558.2 304 557 303.9 557 307.2C557 310 555.5 309.4 552 305.2C550 302.9 548.6 302 548.3 302.7C547.5 304.8 545.3 304.2 543.3 301.4C541.5 299 541.1 298.9 539.1 300.1C537.1 301.3 536.7 301.3 535.4 299.5C534.4 298.2 533 297.6 531.2 297.8C529.5 298 527.3 297.3 525.8 296.1C524.4 294.9 520.3 293.3 516.8 292.5C513.2 291.7 505.4 288.9 499.4 286.3C490.8 282.6 486.9 281.5 481.1 281.1C476.5 280.7 473.5 280 473.2 279.2C473 278.4 474.1 278 476.9 278C479.1 278 481.1 277.6 481.5 277.1C481.8 276.6 478.1 270.8 473.2 264.3C460.3 247 458 243.5 457.4 239.8C456.3 233.3 454.7 231 445.9 223.2C434.7 213.2 432.5 210 431.6 202.5C430.3 191 429.3 188.9 419.3 176.4C404 157.5 367.1 112.3 349.3 90.8L332.9 71.2L324 73.5C308.8 77.6 280 86 268.6 89.7L257.7 93.2L258.9 186.2L256.2 185.6C247.7 183.7 244.1 183.8 237.4 186C233.6 187.2 230.1 188.6 229.6 189C228.3 190.2 241.5 194 247 194C249.6 194 253.1 193.5 254.9 192.9C256.7 192.3 258.3 192 258.5 192.2C258.7 192.4 259.2 198.1 259.6 204.8C260 211.5 260.5 217 260.6 217C261.8 217 282.8 203.9 284.1 202.4C285 201.3 291.8 190.6 299.3 178.4C314 154.7 316.6 151.4 319.9 152.5C321.1 152.8 322 153.6 322 154.1C322 154.6 320.2 158.6 318 163C313.2 172.5 313.1 173.3 316.8 171.9C325.1 168.8 332.5 164.1 339.5 157.6L347.4 150.4L341.2 117.9C334.9 85.4 334.2 80 335.9 80C337.3 80 337.5 80.8 343 109.5C349.4 143.2 350 146 351 146C351.4 146 354 144.2 356.6 142C365.9 134.4 365.9 137.7 356.7 147.6L351.4 153.3L354.1 167.7C359 192.9 359.4 197.3 357.6 200.9C355.4 205 330.5 230 328.5 230C326 230 327.8 227.6 341.9 212.7C349.1 205.1 355 198.4 355.1 197.7C355.4 194 349.6 159.3 348.5 158.1C348.2 157.9 344.9 160.7 341 164.3C333.7 171.3 330 173.4 316.1 179.1L307.6 182.5L295.8 207.5L262 241.5L264.5 275C265.9 293.4 267 308.9 267 309.3C267 309.8 264.4 309.9 261.3 309.6C255 308.9 256.5 310.4 263.3 311.5C266.6 312 267 312.4 267 315C267 318.4 266.1 318.6 259.5 317C250.9 314.9 243.4 315.6 232.6 319.6C227.1 321.6 222.1 323.6 221.7 324C221.3 324.4 223.7 325 227.2 325.3C230.7 325.7 236.3 326.9 239.7 327.9C245.9 329.9 245.9 329.9 256.6 327.9C262.4 326.8 267.4 326.1 267.6 326.3C267.9 326.5 268.5 331.3 269 337C269.4 342.6 270.4 347.8 271 348.4C271.8 349.2 288.1 349.7 326.3 350.1C356.1 350.4 380.6 350.8 380.8 350.8C381 350.9 380.8 351.4 380.5 352C380.1 352.6 363.8 353 335.2 353.1C310.6 353.2 286 353.5 280.5 353.9L270.5 354.5L275.1 408.5C277.7 438.2 280.5 468.1 281.4 475C283 487.1 286.5 502.6 288 504.3C289.8 506.3 333.4 433.7 363 379.5C374.5 358.3 376.2 356 380 356C383.3 356 385.3 358.2 389.6 366.4C392.3 371.6 394 373.4 394 371C394 370.4 394.7 370 395.5 370C397.5 370 397.4 371.5 395 377.8C392.6 384.2 392.4 389.3 394.7 391.1C397.1 393.1 424.1 393 426.5 391C427.5 390.2 430.4 386.3 433.1 382.3C437.7 375.5 440 373.5 440 376.2C440 378.3 433.2 389.5 430.1 392.4C427.2 395.2 426.2 395.4 416.7 396.1C411.1 396.5 406.4 396.9 406.4 396.9C406.3 397 406 397.9 405.7 399C405.1 401.3 403 401.7 403 399.6C403 397.5 401 396.3 396.2 395.6C392 395 391.9 395 390.4 398.6C388.4 403.3 387.2 422.1 388.1 433.5C388.8 442.3 391.9 452.9 394.3 454.8C395 455.3 399.8 456 405 456.3C417 457 419.5 458.1 422.2 464.1C424.3 468.6 424.6 468.8 429.4 469.4C436.1 470.2 453.4 470.2 464.8 469.4C475.4 468.6 475.8 468 470.4 462.1C464.1 455.1 458.2 439.1 455.1 420.3C453.3 409.9 453 409 448.7 403.8C445.1 399.3 444.1 397.2 443.6 392.8C442.9 387.5 443.5 384 445 384C445.4 384 446.2 387 446.8 390.6C447.7 396.1 448.7 398.3 452.4 403C456.8 408.5 457 409.3 458.5 419.4C460.7 435.6 466.6 451.3 473.9 460.4L477 464.3L477 461.1C477 457.8 478.6 456.9 479.7 459.6C480.2 461.1 480.4 461.1 481.2 459.6C482.5 457.3 483.7 457.6 484.8 460.7C485.6 463.2 485.8 462.7 486.5 456.6C487.5 447.8 486 439 480.9 424C478.5 416.9 476.2 407.3 475 399C471.8 377.9 470.4 374.4 462.9 369C457.7 365.2 453 365.1 447.5 368.5C444.9 370.1 441.9 371 439 371C436.5 371 430.9 371.7 426.5 372.5C416.3 374.4 405.9 374.4 401.5 372.6C398.6 371.4 398.1 370.6 397.5 366.8C396.5 360.3 398.4 354.8 403.3 349.7C410.8 342 423.2 340.8 441.6 346.1C447.6 347.8 453.2 349.6 454 350C454.9 350.5 456.7 353.1 458 355.9C460.1 360.6 462 362.5 462 360C462 359.4 462.7 359 463.6 359C464.8 359 465.1 359.7 464.7 361.7C464.3 364 464.9 365.2 468.5 368.6C473.8 373.7 475.4 378.3 477.9 396.2C479.6 408 485.5 429.7 489 437C489.4 437.8 496.3 441 504.4 444.2C512.6 447.3 520.2 450.8 521.4 451.9C524.3 454.7 526.4 461.7 529.1 477.5C530.3 484.6 531.9 492 532.6 493.9C533.4 495.7 534 498.1 534 499.2C534 500.2 534.9 502.3 536 503.8C537.1 505.4 538.4 509.6 539 514C539.6 518.1 540.3 523 540.6 524.7C541.1 528.3 540.7 528 552.2 530C560.4 531.5 563 533.6 563 538.9C563 542.2 562.6 542.9 560.3 543.8C553.3 546.6 546 548 539.4 548L532.3 548L530.7 553.2C529.6 557.3 529.5 558.8 530.4 559.8C531.1 560.5 536.8 561.4 545.4 562.1C559.3 563.1 564 564.1 564 566C564 567.2 565.7 567.2 546.7 565.9C538 565.4 529.7 564.5 528.3 563.9C525.8 563 525.8 562.8 526.4 556L527.1 549L523.1 549C520.9 549 518.9 548.6 518.6 548.1C518.2 547.6 517.3 543.4 516.5 538.8C515.6 534.3 514 527.7 512.9 524.4C510.9 518.3 509.8 513 507.9 501.5C506.9 494.7 503.2 481.6 503.1 484.1C503 485 502 486.9 500.9 488.4C499.2 490.6 498.1 491 495.2 490.8C491.9 490.5 491.3 490 488.9 485C486.7 480.6 485.2 478.9 480.9 476.4C474.7 472.8 472.5 472.6 442.3 472.8L424.2 473L423 476.5C421.5 480.9 416.7 485 412.9 485C409.5 485 409.5 485.1 411.5 489C413.6 493.1 415.9 494 423.7 494.1C431.4 494.2 433.4 493.6 443 488C452.6 482.4 460.2 480.6 470.9 481.4C482.2 482.3 485 482.9 485 484.5C485 485.5 482.3 485.7 471.3 485.3L457.5 484.8L445 491.1L432.5 497.5L423.8 497.5C415.1 497.5 415 497.5 415 500C415 501.4 414.3 505 413.5 508C410.5 519.2 409.8 528 411.5 534.4C412.7 538.9 412.8 540.6 411.9 541.7C410.2 543.7 406.7 542.9 405.4 540.1C404.2 537.8 404.2 537.8 403.5 541C403.1 542.7 403 544.3 403.2 544.5C403.5 544.8 436.8 550 438.5 550C438.8 550 439 550.4 439 551C439 552.4 430.2 552.2 418.5 550.5C403.7 548.4 401.6 548.5 400.2 551.5C398.4 555.5 398.6 555.7 403.9 555.2C410 554.6 422 555.8 422 557C422 557.5 419.2 558 415.8 558.2C409.8 558.5 409.6 558.6 412 559.9C413.8 561 418.4 561.4 428.9 561.4L443.4 561.5L450.8 549C460.6 532.4 461.1 531.8 467.5 532.2C472.5 532.5 472.5 532.5 474.9 537.7C477.4 542.9 479.1 544 485.6 544C486.9 544 488 544.3 488 544.7C488 545.2 490.2 548.9 492.9 552.9C497.2 559.5 498.3 560.5 502 561.4C507.3 562.8 507.2 564.4 501.9 564.8C496.8 565.2 495.4 564 489.4 554.4C486.9 550.4 484.2 546.9 483.4 546.6C481 545.7 476.9 547.1 472.6 550.2C469.9 552.1 467.5 553 464.8 553C459.8 553 459.6 550.5 464.6 549.7C468.8 549 473 545.5 473 542.8C473 540.2 470.4 535.4 468.6 534.7C465.2 533.4 463 535.5 455.6 548C451.4 555.1 446.8 561.8 445.3 562.9C443.1 564.7 441.3 565 432 565C418 565 412 565.8 412.7 567.6C413.4 569.4 412.2 569.4 395 567C377.8 564.6 377.9 564.6 371.5 560.4L366.5 557L323.3 556.6L316.4 560.7C312.6 563 307.5 565.4 305 566C297.3 567.8 263.9 568.9 198.9 569.5C139.6 570 125 569.7 125 568C125 567.5 129.8 566.9 135.8 566.5C141.7 566.2 151.5 565.5 157.5 565.1L168.5 564.3L180.5 556.7C187.1 552.5 193.5 548 194.8 546.8C197.7 543.6 198.6 538.5 201 510.2C202.2 497.2 203.2 486.4 203.4 486.3C203.5 486.1 205.2 486.5 207.1 487C214.6 489.2 231.6 486.9 239.4 482.8C241.3 481.8 241 481.5 236.1 479.9C226.3 476.5 215.6 474.9 209.9 476C207 476.6 204.6 477 204.5 477C204.4 477 204 461.8 203.7 443.2C203.4 424.7 202.6 397 201.9 381.8L200.6 354L197.5 353.4C195.6 353.1 192.8 353.5 190.6 354.4C186.7 356 188.1 354 153.6 407.7C133.2 439.4 65.6 541.1 55.3 555.4C51 561.4 47 566.5 46.3 566.7C45.3 567.1 44.3 564.6 40.4 550.8C39.8 548.8 37 549.5 37 551.6C37 552.4 38.1 555.2 39.4 557.8C40.7 560.4 42.1 563.5 42.4 564.7L43.1 567L21.6 567C9.6 567 0 566.6 0 566.1C0 565.6 8.3 565.1 18.4 564.9C28.6 564.7 37.1 564.2 37.5 563.9C37.8 563.5 36.4 559.8 34.3 555.6L30.6 548.1L33 545.5C34.8 543.6 36.3 543 38.5 543.2C41.3 543.5 41.6 544 43.8 551C45.1 555.1 46.4 559.1 46.6 559.9C46.9 560.9 48.3 559.7 50.6 556.4C58.2 545.9 129.8 438 147.8 410C158.3 393.8 170.1 375.4 174.2 369.1C185 352.3 186.2 351.1 193.8 350.2C197.2 349.7 200.1 349.1 200.3 348.9C200.5 348.7 200.3 342.2 199.9 334.5C199.5 326.8 199 309.4 198.7 295.9L198.3 271.3L209.4 270.2C215.5 269.6 222.7 268.3 225.4 267.4C229.7 265.9 230 265.6 228.4 264.7C225.8 263.2 208.5 262.6 203.3 263.8L199 264.8L199 175.4L185.4 159.1L171.8 142.9L158.8 161.2C151.6 171.3 143.1 182.9 140 187C133.9 195 137.9 191.9 75.1 237.1C63.3 245.6 54.4 252.6 55.3 252.8C56.1 253 61.5 252.4 67.3 251.6C80.4 249.6 81 249.6 81 251.8C81 253.3 78.9 253.8 63.9 255.4C51.5 256.7 46.5 256.9 45.7 256.1C45.1 255.5 44.8 254.9 45.1 254.7C47 252.9 77.8 230.6 101.9 213.5C135.1 189.9 131 194.1 157.9 156.2L170.2 139L165.2 127.6C162.4 121.3 159.8 115 159.4 113.5C158.8 111 159 110.9 161.6 111.2C164.2 111.5 165.1 112.7 169.8 121.8L175.2 132.2L179.7 125.8C189.6 112.2 191.6 109.9 195.2 108.3L199 106.6L199 80L205.5 80C212.3 80 221.1 77.3 225.2 74L227.5 72.2L223 70.9C217.8 69.4 206 69.2 201.3 70.4L198 71.2L198 0ZM197.8 131L197.5 110.7L194.3 113.4C191.4 115.8 180.6 130.1 178 134.9C177.1 136.7 177.3 137.4 179.7 139.5C184 143.3 197.1 152.3 197.6 151.7C197.8 151.5 197.9 142.2 197.8 131ZM402.6 355.8C397.5 366.1 401.7 371.8 413.7 370.7C431.4 369.2 440.8 367.6 445.2 365.4C447.8 364.1 451.5 363 453.5 363C455.4 363 457 362.8 457 362.5C457 362.2 456.1 360.2 455 358C452.9 353.8 449.2 352 434.7 348C420.2 344 407 347.2 402.6 355.8ZM380 359C378.7 359 377.8 360.6 362.2 388.5C343.9 421.6 315 470.6 300.5 493.5L289.8 510.5L290.9 516.3C293.2 527.6 298.8 544.1 301.1 546.7C302.4 548 306.1 550.7 309.2 552.6C314.9 556.1 314.9 556.1 319.7 554.7L324.5 553.3L324.2 546.4C323.8 538.7 324.7 535.4 333.6 513.2C339.9 497.6 343.7 490 345.9 488.2C346.8 487.5 349.7 485.8 352.3 484.4C356.5 482.2 357.1 481.6 356.5 479.7C353.8 471.7 355.2 464.1 360 459.5C362.9 456.7 363.3 456.6 376.5 456.2C383.9 455.9 390 455.6 390 455.5C390 455.4 389.1 453.2 388 450.8C383.7 441.1 382.8 408.9 386.5 399C388.6 393.2 391.1 378.5 390.3 376.2C390 375.3 387.7 371 385.2 366.7C382.8 362.5 380.5 359 380 359ZM393.9 460L382.5 460C371.3 460 371 460.1 369.3 462.6C367.2 465.8 366.4 475 367.9 477.9C369 479.9 369.8 480 380.5 480L391.9 480L391.3 474.6C390.9 471 391.3 467.7 392.3 464.6L393.9 460ZM480.8 467.7C478 468.4 478.7 470.9 482.1 472.8C487.8 475.9 491 479.1 492.1 483.1C492.8 485.2 493.5 486.8 493.8 486.6C494 486.3 493.5 483.7 492.6 480.7C491.7 477.7 491 474.6 491 473.9C491 471.6 494.9 476.2 496 479.9C498.2 486.9 498 486.7 499.1 484.7C499.7 483.8 500.2 481.1 500.2 478.9C500.2 474.3 497.5 470.6 492.3 468.4C489.2 467 484.3 466.8 480.8 467.7ZM534.1 508.7C533.7 508.3 531.6 509.3 529.5 511C525.1 514.5 522.4 515.4 517.5 514.8C513.5 514.3 513.3 514.9 515.6 521.1C516.4 523.5 518.1 530 519.4 535.5L521.6 545.5L526.5 545.3C542.1 544.9 549 544.2 553.5 542.6C560 540.3 560.6 539.6 559.2 536.6C558.1 534.1 557.4 533.8 546.8 532.5C539.4 531.5 538.1 529.9 536.4 519C535.6 513.8 534.5 509.2 534.1 508.7Z" />
		<path id="Layer" class="shp0" d="M1034 72C1032.6 72.5 1020.7 76.3 1007.5 80.5C971.1 92.1 976.2 88.4 961.7 113.9C954.9 125.8 944.4 144.1 938.4 154.7C932.5 165.3 927.4 173.8 927.3 173.6C927.2 173.5 929.5 167.2 932.5 159.7C935.6 152.2 938.3 144.7 938.6 143L939.3 140L929.8 140L920.3 140L911 164.2C905.9 177.6 901 190.3 900 192.4L898.4 196.3L891.3 176.9C887.3 166.2 882.7 153.6 881 148.7L877.8 140L867.9 140C859.4 140 858 140.2 858 141.6C858 143.3 864.2 159.2 879.4 196.5C884.1 208 888 218.4 888 219.6C888 222 878.4 244.9 876.6 246.8C875.9 247.5 872.6 248.5 869.2 249.1C865.8 249.7 861.9 251 860.6 252.1C858.3 253.9 847 272 847 273.9C847 276.1 842.4 281.9 840.5 282C839.2 282 838.9 282.3 839.7 282.8C840.5 283.3 837.4 289.7 829.2 304C817.7 324 817.3 324.6 812.5 326.9C808.4 328.9 787.1 338.6 768.4 347.1C764.6 348.8 764.2 349.3 763.7 353.7C763.2 358 762.5 359.1 757.3 364.1C750.6 370.3 746.1 372.7 731.1 377.7L720.5 381.3L709.4 380.1C696 378.8 687 378.7 687 379.9C687 380.4 688.7 381.1 690.8 381.4C698.6 382.7 712.7 384 718.1 384C730 384 752 374.7 760.9 365.9C766.4 360.3 768 357.6 768 353.4C768 350.9 770.2 349.6 788.5 341.8C792.4 340.1 800.9 336.2 807.5 333C819.3 327.2 819.6 327 823.4 320.8C828 313.5 847.8 278.9 850 274.5C850.8 272.8 852 270.9 852.7 270.2C853.4 269.5 855.4 266.2 857.1 262.9C861.4 254.9 863.4 253.5 872.7 252.2C903.4 247.8 915.6 245.8 916.4 245C918.3 243.1 914.1 242.9 903.4 244.3C897.4 245.1 892.3 245.6 892.1 245.4C891.9 245.2 892.7 243.9 893.7 242.3C895.8 239.3 901 230.1 916 202.5C943.5 152.1 975.6 96.4 978.2 94.3C981.6 91.7 1035.1 75 1040.2 75C1043.1 75 1090 89.8 1179.5 119C1194.4 123.8 1217.3 131.2 1230.5 135.5C1243.7 139.7 1257 144 1260 145C1280.5 152 1319.8 164.2 1322.9 164.6L1326.5 165L1321.5 162.5C1316 159.7 1252.1 138.6 1139.5 102.3C1130.2 99.3 1112.4 93.5 1100 89.5C1042.2 70.6 1039.9 70 1034 72Z" />
		<path id="Layer" class="shp0" d="M1031.2 86.2C1028.5 89.7 1017.4 105.3 1006.6 120.9C993.4 140.1 987.3 149.7 988 150.4C988.5 150.9 989.1 151.2 989.3 150.9C993.3 146.4 1036.6 84.1 1037.7 81.5C1038.9 78.1 1035.8 80.4 1031.2 86.2Z" />
		<path id="Layer" fill-rule="evenodd" class="shp0" d="M824 97L842 97L842 222L824.3 222L822.9 212L819.6 215.3C807.3 227.6 783.1 226.4 769.9 212.7C761.6 204.2 757.4 191.8 758.3 178C759.3 161.4 766.3 149.9 779.5 143.4C793.4 136.5 806.6 137.6 818.3 146.6L824 151L824 97ZM783.8 164C779.5 168.9 778 173.8 778 182.1C778 198.1 791.2 210.3 805 207C811.6 205.4 818.2 200.2 821.1 194.3C824.4 187.6 824.5 174.5 821.3 168.4C819 164 813.1 158.4 809.6 157.1C800.3 153.7 790.3 156.3 783.8 164Z" />
		<path id="Layer" fill-rule="evenodd" class="shp0" d="M588.2 141C601.3 145 611.4 155.4 614.6 167.9C616.8 176.8 616.1 191.4 613.1 199.2C609.1 209.6 599.6 218 587.9 221.7C580.4 224.1 564.3 224 557.3 221.6C549.8 219.1 540.6 212 536.5 205.5C529.8 195 528.1 178.3 532.4 165.5C533.7 161.7 534.6 158.2 534.3 157.8C534.1 157.3 532.8 157 531.4 157C530.1 157 529 156.6 529 156.1C529 154.9 531.5 154 534.8 154C536.3 154 539.2 152.5 541.9 150.2C544.4 148.2 547.3 145.9 548.2 145.2C549.1 144.4 553 142.8 556.7 141.4C565.6 138.3 578.8 138.1 588.2 141ZM563.5 156.4C559.3 158.2 553.6 164.8 551.5 170.3C550.2 173.7 549.9 177 550.1 183.3C550.5 190.5 550.9 192.3 553.5 196.6C555.4 199.6 558.4 202.6 561.4 204.4C565.5 207 567.2 207.4 572.9 207.4C583.2 207.3 590.8 202.3 594.8 193C597 187.7 596.8 174.5 594.3 169C592 163.6 586.8 158.2 582.3 156.4C578.2 154.6 567.4 154.7 563.5 156.4Z" />
		<path id="Layer" class="shp0" d="M622.5 143.7C623.2 147.4 640 197.9 645.7 213.5L648.6 221.5L657.7 221.8L666.7 222.1L667.8 219.3C668.5 217.8 672.8 205.7 677.5 192.6C682.2 179.4 686.2 168.4 686.5 168.2C686.8 167.9 687.2 167.9 687.5 168.2C687.8 168.4 691.8 179.4 696.5 192.6C701.2 205.7 705.5 217.7 706.1 219.2C707.2 222 707.4 222 716 222C723.4 222 724.9 221.7 725.5 220.2C731.5 204.8 752.9 141.7 752.4 140.8C752.1 140.4 747.7 140 742.5 140L733.2 140L724.5 166.2C719.7 180.7 715.4 192.9 715 193.3C714.2 194.2 711.5 187.7 702 161C698.6 151.4 695.4 142.7 694.8 141.7C694.1 140.3 692.6 140 686.7 140L679.5 140L669.5 167C664.1 181.8 659.3 194 659 194C658.6 194 654.6 182.4 650 168.2C645.5 154.1 641.3 141.9 640.7 141.2C640.1 140.4 636.8 140 630.8 140L621.8 140L622.5 143.7Z" />
		<path id="Layer" fill-rule="evenodd" class="shp0" d="M1078 181.5C1079.1 182.8 1078.9 183.6 1077.1 186.1L1074.8 189.2L1079.1 197.5C1083.1 205.4 1083.3 206.2 1082.8 212.4C1082.4 216.3 1081.4 220.3 1080.2 222.3L1078.3 225.7L1140.4 226.3C1174.5 226.7 1218.9 227 1239 227C1281.6 227 1296.6 228 1301.3 230.9C1311.6 237.3 1319.7 253.6 1314.5 257.4C1313.1 258.4 1313.2 261.5 1315.4 287C1318.2 318.4 1320.8 352.6 1321.2 363.6C1321.5 370.1 1321.8 370.9 1324.5 373.3L1327.5 375.8L1328 412C1328.5 444.9 1328.7 448.3 1330.3 449.4C1331.6 450.4 1332 452.2 1332 457.2C1332 463.1 1331.7 464.1 1328.5 468.3L1325 472.9L1325 523.8L1322.5 525.4C1320.8 526.5 1317.7 527 1311.6 527L1303.2 527L1302.5 531.1C1301.4 537.4 1301.3 537.4 1319.5 536.1C1329.1 535.4 1332.6 534.6 1346 529.9L1361.5 524.6L1382.3 524.2C1399.9 523.9 1403 524 1403 525.2C1403 526.4 1400.4 526.8 1390.3 527.3C1383.2 527.7 1373.8 528 1369.2 528C1361.6 528 1359.8 528.4 1346.6 533.5C1333.3 538.6 1331.8 539 1323.8 539C1319.1 539 1311.9 539.3 1307.8 539.6L1300.3 540.3L1297.6 545.7C1296.2 548.6 1295 551.3 1295 551.5C1295 551.8 1299.4 552 1304.8 552C1316.4 552 1323.3 553.5 1336 558.8C1347.5 563.6 1347.9 563.7 1365.5 565C1387.1 566.6 1390 567 1390 568.8C1390 570 1388.9 570.2 1383.8 569.7C1380.3 569.3 1371 568.8 1363 568.4L1348.5 567.8L1322.5 556.6L1292 555.9C1275.2 555.5 1246.1 555.1 1227.3 555.1L1193.2 555L1186.2 551L1179.3 547L1112.5 547L1097.9 555L1043 555C1007 555 987.9 554.7 987.5 554C986 551.6 979 549.2 971.3 548.6L963.1 547.9L954.7 552.4L946.3 557L918.9 557.1C903.8 557.1 883.6 557.5 874 557.9C856.8 558.6 856.4 558.7 847.5 562.4C830.3 569.6 827.8 570.1 818.1 569C813.4 568.5 801.9 567.6 792.5 567L775.5 565.9L770.3 562.4C763.8 557.9 758.8 557.2 754 559.9C745.9 564.5 742.1 565.8 734.5 566.4C730.1 566.8 723.7 567.8 720.2 568.7C716.8 569.6 713.6 569.9 713.2 569.5C710.9 567.2 725.5 563 736.2 562.9L742.5 562.9L737.3 560.2C731.3 557.2 730.8 555.5 734.4 551.3C736.7 548.6 737.3 548.5 745.2 548.5C752.9 548.5 753.9 548.2 760.1 544.8C764.9 542.1 767.1 540.2 768 537.9C768.8 536.2 771.2 532.9 773.5 530.6C775.8 528.4 782.3 518.7 788 509.2L798.3 491.9L795.4 488.9C792.8 486.2 792.5 485.2 792.5 479.5C792.5 474.6 793 472.5 794.6 470.3C797.2 466.7 811.9 459.3 818.8 458C821.9 457.4 825.4 456 827.1 454.5C828.8 453.2 831.8 451.5 834 450.9L837.8 449.7L838.2 440C838.5 431.4 838.8 429.9 841.3 426.2C843.2 423.3 844 420.8 844 417.8C844 415.4 845.1 410.3 846.5 406.5C847.8 402.6 849 398.1 849 396.4C849 390.7 851.9 383.4 855.5 379.7C862.1 372.9 863.4 372.5 884.3 372.2C894.6 372 903 371.5 903 371.2C903 370.8 901.7 368.3 900.2 365.7C898.2 362.2 896.1 360.2 893 358.6L888.5 356.3L888.2 341.5C887.9 322 887.8 322 900 322C912.3 322 912 321.6 912 340.1C912 353.7 911.8 355.2 910 357C908.9 358.1 906.9 359 905.6 359C902.1 359 901.6 360.5 904.6 361.9C907.8 363.3 909 363.3 909 361.8C909 361.1 910.1 359 911.5 356.9C914.5 352.7 922.8 329.9 933.7 296C940.1 276.1 941.3 271.4 941.4 265.2C941.5 259.4 941.1 257.5 939.8 256.3C938.8 255.4 938 253.7 938 252.4C938 249.7 944.1 247.2 973 238.2C1005.1 228.2 1004 228.4 1026.3 227C1035 226.5 1043.9 225.5 1046 224.9C1049.7 223.8 1049.8 223.6 1048.8 220.6C1048.3 218.9 1047.4 216.7 1046.9 215.6C1046.1 214.3 1046.5 211.9 1048.2 206.7L1050.5 199.7L1048.2 198.2C1045 196.1 1045.5 193.1 1049.7 188.8C1052.4 186 1054.2 185 1056.5 185C1058.2 185 1061.1 183.9 1063 182.5C1067.2 179.6 1075.9 179 1078 181.5ZM1095.3 230L1065.9 230.2C1034.6 230.3 1010.7 231.2 1005 232.4C997 234.1 948.2 249.8 944.2 252C942.2 253 985.5 254 1034.7 254C1068.5 254 1078.1 253.7 1078.4 252.7C1081.3 242.8 1084.5 237.8 1091.4 232.9L1095.3 230ZM1214.5 230.4C1125.4 230.2 1101 230.8 1096.4 233.2C1091.1 236.1 1083 247 1083 251.3C1083 253.4 1089.7 254 1113.4 253.9L1134.5 253.9L1137.5 249.7C1142.4 243 1143.1 242.9 1200 243.2C1254.3 243.5 1251.9 243.2 1257.6 249.9L1260.8 253.5L1286.6 253.1C1300.9 253 1312.7 252.6 1312.9 252.4C1313.1 252.2 1312.1 249.6 1310.6 246.6C1307.5 240.3 1302.6 235.6 1296.1 232.7C1291.6 230.6 1289.8 230.6 1214.5 230.4ZM1155.4 246.7C1146.6 247.1 1146.1 247.2 1142.4 250.5L1138.5 253.9L1197.3 254C1242.4 254 1256.1 253.7 1255.8 252.8C1254.7 249.5 1249.7 247.5 1241.2 246.8C1232.6 246.2 1172.9 246.1 1155.4 246.7ZM959.7 257.2L946.2 256.7L945.5 260C944.5 264.3 945.8 265 955.3 265C962.6 265 963.2 265.2 966.4 268.2L969.9 271.5L967.4 299.5C964.8 329.5 962.4 351.8 961.4 354.4C960.9 355.7 961.6 356 965.3 356L969.9 356L970.5 351.7C971.4 345.1 976.9 277.3 977.2 269.3C977.5 263 977.2 261.8 975.3 259.9C973.3 257.9 971.9 257.6 959.7 257.2ZM1031.2 257L979.2 257L980.3 259.9C981.5 263.1 979.9 287.2 975.4 333.8C974.1 347.8 973 362.1 973 365.6L973 372L1074 372L1074 361.7C1073.9 356.1 1074.8 341.8 1075.9 330C1077 318.2 1078.9 297.7 1080 284.5C1081.1 271.3 1082.3 259.7 1082.6 258.7C1083.1 257.1 1080.2 257 1031.2 257ZM1133.3 257L1086.3 257L1085.1 268.2C1084.5 274.4 1083.1 290.5 1081.9 304C1080.8 317.5 1079.3 335 1078.5 343C1077.7 351 1077 360.8 1077 364.7L1077 372L1082.5 372C1090.3 372 1089.3 373.7 1081 374.6C1077.2 374.9 1073.3 375.8 1072.4 376.5C1070.9 377.6 1070.6 381.5 1070.2 413.9L1069.7 450L1126 450L1126 428.6C1126 402.5 1125.5 398.1 1122.5 397C1119.5 395.8 1119 394.2 1119 384.4C1119 375.7 1120 372 1122.4 372C1125.2 372 1126 369 1126.5 357.9C1127.1 345.6 1131.6 276.2 1132.6 264.2L1133.3 257ZM1138 257.6C1136.6 258 1136 264.7 1133.7 301.3C1132.1 325.1 1130.4 348.9 1129.9 354.4C1128.8 365.3 1129.4 372 1131.6 372C1134 372 1135 375.7 1135 384.7C1135 394.2 1134.7 395.1 1131.3 396.9C1129 398.1 1129 398.1 1129 423.5L1129 449L1179.3 449C1206.9 449 1237.9 449.3 1248.3 449.7L1267 450.3L1267 406.5L1263.3 412.9C1258.4 421.2 1247 431.8 1238.8 435.7C1228.7 440.5 1223.5 441.3 1202.9 440.9L1184.3 440.5L1175.9 436.3C1166 431.3 1158.4 425 1153 417C1142.9 402.1 1139.3 385.7 1142 367C1142.7 362.2 1142.6 360.4 1141.7 359.8C1140.8 359.2 1140.9 359 1142 359C1142.9 359 1144.4 356.7 1145.6 353.5L1147.7 348.1L1145 347.5C1139 346.2 1138.8 345.3 1140 323.9C1141.4 297.7 1143.9 264 1144.6 261.1C1144.9 259.7 1144.6 258.4 1143.8 257.9C1142.5 257 1140.6 256.9 1138 257.6ZM1203.8 257.5C1163 257.2 1151.1 257.5 1149.8 258.8C1149.4 259.2 1155.7 259.2 1163.8 258.9C1194.4 257.5 1242.1 258.2 1245 260C1245.7 260.4 1246.7 268 1247.5 279.1C1249.3 303.2 1249.9 307.4 1249.3 292C1248.6 272 1247.3 260.9 1245.6 259.2C1244.4 257.9 1238 257.7 1203.8 257.5ZM1254.5 257C1250.9 257 1249.7 257.9 1250.4 260.2C1251 261.8 1252.5 281.3 1254.5 311.2L1255.9 332.8L1259.7 338.5C1261.7 341.7 1263.6 343.8 1263.8 343.2C1264.2 341.9 1259.2 262.4 1258.5 259.2C1258.1 257.5 1257.3 257 1254.5 257ZM1308.9 257L1285.4 257C1263.8 257 1262 257.1 1262.1 258.7C1262.1 259.7 1263.6 281.6 1265.3 307.5L1268.5 354.5L1271.5 355.1L1274.5 355.8L1271.6 355.9C1269.2 356 1268.9 356.3 1269.4 358.3C1271.6 367.3 1272.1 371.9 1271.6 380.7C1271.3 386.1 1270.7 403.7 1270.4 419.7L1269.8 449L1284.7 449C1292.8 449 1305.3 449.3 1312.4 449.7L1325.2 450.3L1324.8 414.1C1324.4 372.4 1325.3 375.7 1314 374.6C1305.7 373.7 1304.7 372 1312.5 372L1318 372L1318 356L1312.3 355.8L1306.5 355.6L1311.8 355.3C1316.9 354.9 1317 354.8 1317 351.8C1317 348.3 1310.3 267.9 1309.4 261.2L1308.9 257ZM961.5 269.5C955.4 267.2 954.5 268.1 950.1 280.7C942.4 302.2 927 349.2 926.8 351.9C926.5 354.4 926.7 354.5 934 355.3C938.1 355.7 944.4 355.9 947.9 355.7C956.8 355.2 958.4 353.3 959.8 340.9C961.9 324 965.1 281.3 964.8 275.9C964.5 271.1 964.2 270.5 961.5 269.5ZM1171.6 268.2L1152.1 267.8L1151.6 270.1C1151.3 271.4 1150.8 277.7 1150.5 284C1150.2 290.3 1149.6 296.5 1149.3 297.7L1148.8 300L1198.1 300L1197.5 292.2C1196.3 278.4 1195.2 272.7 1193 270.6C1191.2 268.7 1189.4 268.5 1171.6 268.2ZM1229.6 273.7L1226.7 274.2L1227.4 285.8C1228.6 304.9 1229.8 315.3 1231.2 316.6C1231.9 317.3 1236 319.7 1240.3 321.9C1247.5 325.7 1248 325.8 1247.5 323.7C1247.3 322.5 1246.6 313.2 1246 303C1244.5 276.1 1244.2 274.3 1241.6 273.6C1239.3 273 1234.3 273 1229.6 273.7ZM1203 318.2C1183.4 323.2 1166.1 342.9 1161.4 365.5C1158.1 381.4 1161.3 399.5 1169.7 413.1C1176.1 423.5 1193 437.8 1197.7 436.8C1198.9 436.6 1197 435.1 1192.2 432.6C1178.9 425.5 1167.6 410.5 1163.5 394.5C1162.7 391.2 1162 384.2 1162 378.5C1162 360 1167.5 346.3 1179.9 333.9C1190.9 323 1197.9 320 1216.5 318.4C1222.9 317.9 1224.8 317.5 1223 316.9C1218.9 315.7 1210.6 316.2 1203 318.2ZM899.4 326C897.6 326.7 897.1 328 896.5 333.5C896.1 337.2 896.1 343.3 896.5 347.2C897.2 353.5 897.5 354.2 899.9 355.1C901.5 355.7 903.7 355.8 905.5 355.3C908.3 354.5 908.6 354 909.4 348.1C909.8 344.6 909.9 338.4 909.5 334.3C908.9 327.6 908.6 326.8 906.3 325.9C903.4 324.8 902.2 324.8 899.4 326ZM1208 340.9C1199.9 343.5 1193.4 348.7 1187.8 356.8C1182.9 364 1181.7 368.9 1182.2 380.3C1182.8 392.3 1185.3 398.8 1192.7 406.3C1199.5 413.3 1206.7 416.4 1216 416.5C1222.3 416.5 1224.4 416.1 1229.3 413.6C1244.9 405.7 1253.3 386 1248.6 368.4C1245.5 356.6 1238.5 347.9 1228.3 343.3C1222.4 340.6 1212.4 339.4 1208 340.9ZM970 359L948.3 359.2C936.3 359.3 923.5 359.5 919.9 359.7C912.5 360.1 912 360.6 912 368.2L912 372L970 372L970 359ZM893.4 374.6C881.3 374 868.3 375.3 863.7 377.5C860.3 379.1 855 384.5 855 386.3C855 386.7 866 387 879.5 387L904.1 387L906.5 384.5C908.2 382.9 909 381 909 378.5C909 375.2 908.8 375 905.7 375C903.8 375 898.3 374.8 893.4 374.6ZM964 375L912 375L912 379.4C912 385.3 908.3 390 903.6 390C901.8 390 898.2 390.3 895.7 390.6C891.6 391.2 891.2 391.5 892 393.1C893.3 395.4 893.3 399.7 892 400.5C890.2 401.6 890.9 402.6 895.4 404.7C902 408 906.6 412.5 910 419.2L913 425.3L913 468.3L937.1 467.8C952.5 467.5 961.5 466.9 962.2 466.2C962.9 465.5 963.5 457 963.8 443.1L964.3 421L960.6 419.5L957 418L957 396.4L964 393L964 375ZM1068.2 375L1024.4 375.1C1000.2 375.2 978 375.6 974.9 375.9C966.7 376.8 965.7 378 966.2 386.3C966.5 392.6 966.8 393.3 969.8 395.6C973 398.1 973 398.2 973 407C973 415.7 972.9 415.9 969.8 418.5L966.7 421.2L966.2 444.6C965.9 461.1 965.4 468.3 964.5 469C963.9 469.5 952.5 470.3 938.7 470.6L914 471.3L914 478L934.3 478C945.5 478 962.3 478.3 971.6 478.7L988.4 479.3L985.4 475.4C980.1 468.7 980 468.1 980 450.5C980 437 980.3 433.1 981.7 430.3C984 425.4 1002.7 406.7 1008 404C1011.9 402 1013.5 401.8 1022.9 402.2C1038.9 402.9 1046.6 407.4 1052.6 419.6C1055 424.4 1055.2 426.1 1056.1 449C1056.6 462.4 1057.2 473.5 1057.3 473.7C1057.5 473.8 1059.7 471.2 1062.3 467.8L1067 461.7L1067 420.6C1067 398 1067.3 378.5 1067.6 377.2L1068.2 375ZM867.8 390.2C852.6 390.5 852.1 390.7 852 398.2C852 401.4 851.9 401.4 855.7 399.9C857.2 399.3 861 398.4 864 397.8C870.1 396.7 873.4 395 875 392C876 390.1 875.8 390 867.8 390.2ZM865 400.9C856.1 403.3 852.5 405.4 849.5 409.7C845.7 415.3 846.2 417.6 851.6 420.8C854.2 422.3 858.8 425.5 861.8 428C868 432.9 872.7 433.7 877.5 430.6C884.3 426.1 887.3 407.2 881.5 405C880.3 404.5 878.4 403 877.2 401.6C874.9 398.6 873.8 398.6 865 400.9ZM1013.1 405.7C1009.7 406.4 1004.1 410.1 1000.1 414.3L996.8 417.9L1011.8 418.2C1026.7 418.5 1026.9 418.5 1031.1 421.5C1033.4 423.1 1036.4 426.5 1037.7 428.9C1039.8 433 1040 434.4 1040 450.4L1040 467.6L1045.5 473C1048.5 475.9 1051.2 478.1 1051.5 477.8C1052.7 476.7 1053.1 447 1052.2 435.8C1051.4 426.2 1050.8 423.3 1048.7 419.8C1045.6 414.5 1041.7 410.8 1036.4 408C1032.2 405.9 1018.5 404.5 1013.1 405.7ZM887.4 407.6C887.7 408.5 888 411.3 888 413.9C888 417.8 888.7 419.4 892 423.9C897 430.5 901.2 443.2 900.8 450.5C900.6 455 901.1 456.5 905.5 464.3C908.3 469.1 910.6 472.5 910.8 471.8C910.9 471.1 910.7 460.1 910.2 447.3L909.4 424.1L905.4 418.3C902.8 414.4 899.7 411.4 896 409.3C890.1 405.7 886.4 405 887.4 407.6ZM848.1 426.6C846.6 430 846.8 434.6 848.8 440.5C850.4 445.1 850.8 445.5 854.5 446.2C859.5 447.1 869.8 447.2 872.8 446.4C875.8 445.6 875.6 444 872.4 444C867.3 444 860.4 441.7 857.5 438.9C855.8 437.3 853.9 436 853.2 436C851.6 436 851.7 435 853.5 430.7C854.9 427.4 854.9 427.2 853 427.7C851.6 428.1 851 427.7 851 426.7C851 424 849.3 423.9 848.1 426.6ZM860.5 449.7C857.7 450.5 857.2 451.6 857.7 456.4C858.1 459.8 857.6 461.8 854.6 467.4C851.8 472.7 851 475.3 851 479.3C851.1 489.3 852.9 499.3 855.9 505.4L858.8 511.5L858.9 504.1C859 497.7 860 493.7 866.6 473.8C870.8 461.2 873.9 450.6 873.6 450.3C872.8 449.4 862.9 449 860.5 449.7ZM1126 452L1075 452L1075 461L1126 461L1126 452ZM1267 452L1213.3 452.2C1183.7 452.3 1152.7 452.6 1144.4 452.7C1129.7 453 1129.2 453.1 1128.6 455.3C1128.3 456.5 1128 458.3 1128 459.2C1128 460.9 1132 461 1197.5 461L1267 461L1267 452ZM1299.6 453C1267.6 453 1269 452.8 1269 458.6L1269 461L1330.2 461L1329.6 458.7C1329.3 457.5 1329 455.7 1329 454.7C1329 453.1 1326.9 453 1299.6 453ZM1200.1 464C1076.6 464 1072.9 464.1 1074.2 465.8C1074.9 466.9 1077.5 470.2 1080 473.3L1084.5 478.9L1199.6 479L1314.8 479L1319.6 473.2C1322.2 470.1 1325 466.7 1325.8 465.7C1327.2 464.1 1321.1 464 1200.1 464ZM1020.9 467.9C1013.9 471.4 1008 488.3 1008 504.6C1008 532.5 1020.4 551.4 1030.9 539.5C1034.8 535.1 1034.8 534.2 1031 534.8C1025.6 535.6 1023.2 534.3 1020.1 528.8C1016.2 522 1014.6 512.7 1015.2 500.4C1015.9 485 1021.4 475 1029 475C1031 475 1033.2 475.6 1033.9 476.2C1035.9 478.1 1034.4 475.4 1030.8 470.9C1027.4 466.4 1025.1 465.7 1020.9 467.9ZM800.2 480.2C798.5 483.8 800.9 490 803.9 490C805.1 490 806 489.5 806 489C806 487.1 807.9 488 812.6 492C817.6 496.4 818.9 496.6 820.7 493C821.7 491 821.5 489.9 819.5 486.1C818.3 483.5 816.4 480.5 815.4 479.3C811.7 475 802.5 475.6 800.2 480.2ZM821 476L818 476L821 481.3C824.6 487.8 825 493.5 821.9 497.4C819.2 500.8 816.9 500.7 812.5 496.9C810.4 495 807.6 493.6 805.3 493.4L801.5 492.9L796 502.6C793 508 787.7 516.8 784.3 522.3C780.8 527.7 778 532.5 778 532.9C778 534 784.5 540 785.7 540C786.3 540 787.3 539.4 787.9 538.6C788.8 537.6 788.7 537 787.5 536C785.9 534.7 785.4 532 786.8 532C787.3 532 788.5 532.7 789.6 533.5C790.6 534.3 792 535 792.7 535C795.8 535 820.9 511.7 824.7 505.3C826.1 502.9 827.6 501 828.1 501C829.8 501 829 505.3 826.6 509.4L824.2 513.6L826 518.9C828.3 525.4 832.7 532.4 837.3 536.8C840.6 540 840.7 540 843.8 538.5C846.2 537.3 847.1 536 847.6 533.2C848.6 527 848.9 526.4 853.2 522.2L857.3 518.1L855 512.8C849.9 500.8 833.7 480 827.3 477.4C825.5 476.6 822.7 476 821 476ZM1025.3 480.2C1020.1 485.9 1017.4 496.8 1018.3 508.8C1019.1 520.8 1024.3 532 1029.1 532C1031.9 532 1035.8 526.3 1038.1 518.8C1039.9 513 1040.2 510.2 1039.7 502.1C1039.2 491.3 1037.2 484.9 1033.3 480.8C1030.1 477.4 1028 477.3 1025.3 480.2ZM1067.1 488L1066.4 483.5L1065.5 490.4C1064.6 498.3 1065.7 520.5 1067.1 523.2C1068.4 525.7 1073.7 526.5 1089 526.5C1104.3 526.5 1109.6 525.7 1110.9 523.2C1112.3 520.5 1113.4 498.3 1112.5 490.4C1111.7 483.6 1111.6 483.6 1110.9 487.5C1110.5 489.7 1110.1 498.3 1110.1 506.5C1110 516.9 1109.6 522 1108.8 522.8C1107.1 524.5 1070.9 524.5 1069.2 522.8C1068.4 522 1068 516.9 1067.9 507C1067.9 499 1067.5 490.5 1067.1 488ZM952 493L902 493L902 498L952 498L952 493ZM990.9 501L972 501L972 511.8C972 521.8 971.8 522.8 969.7 524.8C967.6 526.7 966.2 527 957.9 527L948.5 527L946.3 534.8C945.1 539.1 942.9 545.2 941.4 548.3C940 551.5 939 554.3 939.2 554.6C940 555.4 949.4 551.6 954.7 548.3L959.5 545.3L971.5 545.9C981.8 546.5 984 546.9 986.7 548.8C990.2 551.3 999.3 552.9 1000.4 551.2C1000.7 550.7 1000.1 548.2 999 545.6C995.9 538.6 993.1 526.7 992.5 517.6C992.2 513.2 991.7 507.6 991.4 505.2L990.9 501ZM1204 501L1183 501L1183 511.8C1183 526.1 1182.9 526.2 1171.2 526.9C1166.2 527.3 1161.7 527.9 1161.2 528.5C1160.1 529.7 1156.9 542.2 1157.5 542.9C1157.7 543.1 1163.5 543.6 1170.2 543.9C1181.5 544.6 1183 544.9 1188.8 548C1194.4 550.9 1196.4 551.3 1204.7 551.8C1213.9 552.3 1214.3 552.2 1213.5 550.4C1208.1 538.2 1204 519.7 1204 507.9L1204 501ZM820.7 517C820.5 517 816.2 520.6 811.1 525C806 529.4 799.4 534.8 796.5 537C793.6 539.2 790.4 542 789.5 543.2C787.9 545.6 782 560.2 782 562C782 562.5 783.4 563 785 563C787.7 563 788 562.8 787 561.1C785.5 558.2 785.8 553.3 787.6 550.5C790.3 546.4 793.9 545.9 815.6 546.6C835.3 547.3 835.8 547.2 836.9 545.2C837.8 543.5 837.3 542.5 833.5 538.2C831 535.4 827.2 529.5 825 525.1C822.8 520.6 820.8 517 820.7 517ZM879.3 533.4C865.6 533.1 864.1 533.3 859.3 536.6C857.3 537.9 854.8 539 853.7 539C849.1 539 843.1 543.2 837.1 550.5C831.2 557.7 829 559.4 829 556.7C829 556.1 827.8 556.8 826.4 558.4C825 559.9 824.1 561.7 824.3 562.4C824.5 563 827 563.6 829.8 563.8C833.6 564 836.1 563.5 839.7 561.7C848.8 557.1 854.2 555.7 866 555.1L877.5 554.5L877.8 550.9C878.2 546.1 875.3 542.6 869.5 541.1C863.2 539.5 863.6 537.6 870.2 538.2C877.4 538.9 881 542.9 881 550L881 555L888.3 555C892.2 555 896.5 554.7 897.7 554.4C902.8 553 900.7 542.8 894.2 536.6C891.2 533.8 890.8 533.7 879.3 533.4Z" />
		<path id="Layer" class="shp1" d="M682.3 259.5C671.7 262.8 660.9 272.6 656.8 282.8C653.8 290.4 653.7 304.9 656.6 312.5L658.6 317.5L693.8 317.8L729.1 318L731.3 313.3C734.4 306.4 734.3 290.9 731.1 282.7C726.8 271.7 715.1 261.9 702.9 259.1C696.9 257.7 687.4 257.9 682.3 259.5Z" />
		<path id="Layer" class="shp0" d="M429.7 308C426.8 310.3 425.9 315.5 428.2 317.8C429.1 318.7 429 320.6 428 325.9C426.9 331.6 426.9 333.4 428 336C430.6 342.3 443.3 346.7 451.4 344C454.6 343 455.3 343.1 457.9 344.9C459.5 346.1 461.3 347 461.9 347C463.5 347 463.2 344.3 461.5 343.6C460.7 343.3 460 342.4 460 341.5C460 340.4 460.6 340.1 462.5 340.6C464.7 341.1 465 340.9 465.1 338.4C465.2 335.9 465.4 336.1 466.1 339.5C466.6 341.7 467.4 346.2 467.9 349.4C468.9 355.2 470.3 358 471.6 356.7C472 356.3 471.8 352.5 471.1 348.3C470.5 344 469.3 335.8 468.5 330C466.7 317.6 464.1 313 456.4 309C452.4 307 449.8 306.4 442 306.2C433.5 305.9 432.2 306.1 429.7 308Z" />
		<path id="Layer" class="shp0" d="M237.3 319.6C233.8 321 231 322.6 231 323C231 324.8 244 327.3 250.7 326.7C260.8 325.8 268 324.1 268 322.5C268 320.6 259.2 318.1 250.5 317.5C244.5 317 242.6 317.3 237.3 319.6Z" />
		<path id="Layer" class="shp0" d="M621.1 338.2C615.2 353.9 613.9 359 615.9 359C616.4 359 617.9 356.4 619.2 353.2L621.7 347.5L622.4 354C623.5 364.2 625.1 372.2 626.6 375.9C627.9 378.9 628.2 379.2 629.5 377.9C630.3 377.1 632 372.5 633.3 367.7L635.6 358.9L638.4 371.7C642.3 389.8 643.6 391.6 646.7 383C647.7 380.2 648.7 378 649 378C649.4 378 650.9 382 652.5 387C654.1 391.9 655.9 396 656.6 396C657.6 396 659.5 392.1 661.3 386C661.6 385.1 662.4 386 663.4 388.5C664.3 390.7 665.5 393.5 666 394.7C667.3 397.8 668.4 397.6 670.1 393.8L671.6 390.7L673.3 394.8C675.2 399.4 676.8 400.1 678.8 396.9C680.1 394.9 680.1 394.9 682 397.2C683.7 399.4 684.6 399.5 698 399.8C712.6 400.2 717.5 399.7 716.5 398C716.1 397.4 709.7 397 701.5 397C686.1 397 686 397 682.3 391.3L680.7 388.9L678.5 391L676.3 393.1L674.6 388.5C672.6 383.4 671.5 382.9 669.8 386.5C669.2 387.9 668.3 389 667.9 389C667.5 389 666.2 386.1 665 382.4C663.8 378.8 662.3 376.1 661.7 376.3C660.4 376.7 658.2 382.6 658.1 385.8C657.9 389.9 656.5 387.4 653.5 378C650.2 367.5 648.4 366.6 646.1 374.3C645.3 376.9 644.3 379 643.9 379C643.3 379 641.2 369.1 638.4 352.7C638.1 350.7 637.2 349 636.5 349C635.1 349 634.8 349.9 630.9 363C628.8 370.1 628.7 370.3 627.9 367.5C627.1 364.9 625 342.8 625 337.9C625 335.2 622.1 335.5 621.1 338.2Z" />
		<path id="Layer" class="shp0" d="M625.5 410.7C624.1 412.3 621.5 416.4 619.8 419.8C616.6 426.2 616.6 426.2 616.2 445.6C615.9 458.3 616.1 465 616.7 465C619.1 465 620 459.1 619.7 445C619.5 428.5 620.6 423.8 626.5 415.4C631.6 408.3 630.9 405 625.5 410.7Z" />
		<path id="Layer" class="shp0" d="M639 425.5C639 426.3 640.4 427.7 642.1 428.6C646.1 430.6 649.7 434.4 652.2 439.4C653.9 442.8 654.1 444.4 653.5 454C652.4 469.9 652.7 470.7 662.8 481.2C672.1 490.8 675 493.1 675 490.6C675 489.8 671.5 485.4 667.1 480.8C656 469 655.7 468.3 656.6 454.6C657.3 442.2 656.6 438.6 652.5 432.9C647.6 426.3 639 421.5 639 425.5Z" />
		<path id="Layer" class="shp0" d="M627.7 459.5C627.3 464 625.4 469.9 621.6 479.2C618.7 486.5 615.5 494.9 614.6 497.9C612.8 504.2 612.5 512.8 614.1 518.3C615.4 523.1 614 525.7 599.4 545.1C588.3 559.8 587.8 560.1 577.7 561.6C573.5 562.2 570.8 564.1 572.2 565.5C573 566.3 588.8 563.2 591.8 561.6C593.5 560.7 596.7 559.8 599.1 559.5C603.2 559.1 603.3 559.1 600.7 560.2C599.2 560.9 598.1 561.9 598.3 562.4C598.9 564.1 603 563.1 608.5 560C613.9 557 616 557 616 560.1C616 563.6 619.4 562.1 624.7 556.4C629.7 551 630.2 550.8 633.7 551.3C635.7 551.7 638.3 552.8 639.4 553.9C641.2 555.7 641.2 556 639.7 556.6C638.8 556.9 638 557.9 638 558.7C638 559.9 638.7 560.1 640.8 559.5C642.3 559.2 645.2 558.6 647.3 558.3C651.4 557.7 652.3 555.6 648.8 554.7C646.7 554.1 646.7 554 648.5 552C652.3 547.8 658.6 550.6 659.6 557C660.5 562.5 664.6 566.2 669.4 565.8C673.9 565.4 674.1 563.8 669.8 562.7C666.8 561.9 666.7 561.7 668.3 560.5C670.6 558.9 678.2 557.7 678.9 558.9C679.2 559.4 681.4 560.4 683.8 561.1C687 562 688.3 562.1 689.2 561.2C690.8 559.6 694.1 559.7 696.5 561.4C699.1 563.2 708.6 566 712.2 566C716.5 566 715.8 563.2 711.3 562.5C709.2 562.2 705 561 702 559.9C699 558.8 695.2 557.5 693.5 557C691.8 556.4 685.9 551.5 679.6 545.1L668.7 534.2L672.7 529.3C680.8 519.6 681.9 514.5 680.1 494.7C678.9 481.6 676.1 470.2 673.6 468.1C670.9 465.9 670.9 468.8 673.6 475.7C678.7 489.2 676.7 500.9 667 513.6C662.7 519 662.1 521 664.5 521C666.1 521 674.4 510.3 675.5 507C676.4 504 678 504.6 678 507.8C678 512.5 675.2 520.4 672 524.8C669.6 528.2 662.3 533.5 657.5 535.4C657 535.6 659.4 538.8 663 542.5L669.5 549.3L662.2 545.4C654.2 541.2 653.6 540.5 652.6 534.5C652 531.3 652.1 530.7 653.1 531.7C654.9 533.5 658.5 533.3 662.2 531.4L665.3 529.8L661.2 525.8L657.2 521.7L652.4 523.4C649.8 524.3 644.7 525 641.2 525L634.7 525L635.4 531.2C636.8 543.4 637.7 542 627.1 545.2C621.9 546.7 617.4 547.8 617.2 547.5C616.7 547 620.3 542.1 624.4 537.7C625.8 536.2 627 534.5 627 534.1C627 533.6 625.2 531 623 528.4C617.7 522 616.7 518.3 617.2 506.9C617.6 498 618 496.7 624 482.5C629.3 470 630.4 466.3 630.8 460.2C631.2 454.3 631 453 629.8 453C628.7 453 628.1 454.7 627.7 459.5Z" />
		<path id="Layer" class="shp0" d="M207.8 477.7C204.3 478.1 204 478.4 204 481.1C204 484.9 206.7 486 216.2 486C223.2 486 235 483.5 235 482C235 481.6 231.5 480.3 227.2 479.1C219.7 477.1 216.2 476.8 207.8 477.7Z" />
	</g>
	<path id="Shape 1" class="shp0" d="M664 323L721 323C721.55 323 722 323.45 722 324L722 324C722 324.55 721.55 325 721 325L664 325C663.45 325 663 324.55 663 324L663 324C663 323.45 663.45 323 664 323Z" />
	<path id="Shape 2" class="shp0" d="M670 328L716 328C716.55 328 717 328.45 717 329L717 329C717 329.55 716.55 330 716 330L670 330C669.45 330 669 329.55 669 329L669 329C669 328.45 669.45 328 670 328Z" />
	<path id="Shape 3" class="shp0" d="M680 334L708 334C708.55 334 709 334.45 709 335L709 335C709 335.55 708.55 336 708 336L680 336C679.45 336 679 335.55 679 335L679 335C679 334.45 679.45 334 680 334Z" />
</svg>