<svg version="1.2" baseProfile="tiny-ps" xmlns="http://www.w3.org/2000/svg" viewBox="0 0 1207 245" width="1207" height="245">
	<title>Screenshot 2021-05-23 at 9</title>
	<style>
		tspan { white-space:pre }
		.shp0 { fill: none;stroke: #000000;stroke-width: 4.4 } 
	</style>
	<g id="Layer">
		<path id="Layer" class="shp0" d="M1012.12 18.5C986.37 20.7 985.44 20.8 979.16 23.99C975.56 25.79 971.95 27.79 971.13 28.49C970.3 29.09 961.96 34.08 952.59 39.48C943.22 44.87 934.36 50.17 932.82 51.17C931.17 52.17 921.9 57.66 912.22 63.36C902.43 69.05 891.82 75.15 888.74 76.95C885.65 78.75 880.8 81.74 877.92 83.54C875.14 85.34 867.42 89.84 860.82 93.63C854.23 97.33 847.44 101.23 845.89 102.22C830.34 111.42 821.79 116.41 800.06 129C786.26 136.99 771.43 145.49 767.2 147.88C758.55 152.78 758.97 154.08 768.13 150.88C777.92 147.39 777.71 149.08 767.62 153.78C748.67 162.77 716.02 180.26 697.17 191.75C692.95 194.24 685.02 197.74 672.97 202.34C666.79 204.64 655.56 208.83 648.04 211.73C640.52 214.53 633.31 216.82 631.87 216.82C630.53 216.82 629.2 217.42 628.89 218.12C628.68 218.72 626.21 219.92 623.43 220.72C620.65 221.52 614.26 223.42 609.32 225.02C604.37 226.52 599.84 227.82 599.33 227.82C597.27 227.82 598.4 226.12 601.18 225.12L603.96 224.02L601.39 223.92C599.95 223.92 593.77 225.22 587.48 226.82C581.3 228.51 570.59 231.21 563.9 233.01L550.97 223.9L542.27 234.01C537.12 232.81 525.28 229.81 515.9 227.32C487.89 219.92 467.6 216.03 450.81 214.83C430.73 213.53 431.04 213.63 408.79 199.74C401.17 194.94 395.71 192.55 384.49 188.85C372.02 184.75 367.9 182.85 356.37 175.76C349.06 171.16 336.8 163.67 329.28 159.08C321.76 154.58 312.19 148.48 308.17 145.69C301.58 141.19 299.93 140.49 294.68 140.09C289.73 139.79 287.47 140.19 281.49 142.59L274.39 145.59L269.75 142.69C259.45 136.2 252.55 133.7 243.7 133.2C236.38 132.7 234.53 133 229.59 135.1C226.5 136.39 220.94 138.39 217.23 139.39C213.11 140.59 198.89 147.59 180.46 157.58C163.88 166.47 147.6 175.16 144.1 176.86C130.51 183.55 77.47 204.84 74.38 204.84C73.76 204.84 70.77 205.93 67.68 207.33C64.28 208.93 60.37 209.83 57.18 209.83C52.34 209.83 42.35 211.83 36.89 213.93C34.83 214.73 32.97 214.63 29.27 213.43C22.57 211.13 15.88 212.53 -4.31 219.92C-13.06 223.12 -21.1 225.82 -22.02 225.82C-24.8 225.82 -24.7 228.51 -21.4 238.11L-22.89 275.49L259.95 265.01C413.21 264.61 552.57 298.18 551.77 285.25C550.4 263.19 575.4 262.05 603 262.05C646.57 262.05 654.88 265.12 655.71 263.82C656.22 263.02 656.74 258.93 656.74 254.93C656.74 249.44 657.05 247.74 657.87 248.54C658.59 249.24 658.9 252.63 658.7 257.73L658.28 265.82L684.34 265.82C700.41 265.82 711.22 265.42 712.46 264.82C714 263.92 714.41 262.62 714.41 258.03C714.41 249.74 715.03 249.14 722.04 250.83C728.94 252.43 729.55 253.83 723.27 253.83L718.84 253.83L718.12 258.43C717.81 261.03 717.5 263.72 717.5 264.42C717.5 265.62 758.49 263.99 967.97 263.99C967.97 263.99 1229.12 290.36 1215.22 244.8L1215.22 169.97L1215.22 95.03L1194.42 84.64C1160.53 67.75 1104.3 40.28 1077.62 27.69C1048.58 14 1054.76 14.8 1012.12 18.5Z" />
	</g>
</svg>