<svg width="1686" height="382" viewBox="0 0 1686 382" fill="none" xmlns="http://www.w3.org/2000/svg">
<path d="M59.3438 286.999L6.1875 83.7961H50.0625L89.7188 237.64L135.141 83.7961H170.719L215.859 237.64L255.938 83.7961H299.672L246.516 286.999H192.234L152.859 161.421L113.625 286.999H59.3438ZM347.625 120.781C341.156 120.781 335.625 118.531 331.031 114.031C326.438 109.437 324.141 103.906 324.141 97.4368C324.141 91.0618 326.438 85.6243 331.031 81.1243C335.719 76.5305 341.25 74.2336 347.625 74.2336C353.906 74.2336 359.344 76.5305 363.938 81.1243C368.531 85.6243 370.828 91.0618 370.828 97.4368C370.828 103.906 368.531 109.437 363.938 114.031C359.344 118.531 353.906 120.781 347.625 120.781ZM326.953 286.999V142.437H367.734V286.999H326.953ZM475.031 289.671C452.25 289.671 433.641 282.734 419.203 268.859C404.766 254.984 397.547 236.89 397.547 214.577C397.547 192.171 404.719 174.077 419.062 160.296C433.5 146.515 452.156 139.624 475.031 139.624C493.594 139.624 509.203 144.265 521.859 153.546C534.516 162.827 542.578 175.906 546.047 192.781L508.641 196.859C506.484 188.421 502.453 182.093 496.547 177.874C490.641 173.656 483.328 171.546 474.609 171.546C463.734 171.546 454.922 175.484 448.172 183.359C441.422 191.234 438.047 201.64 438.047 214.577C438.047 227.421 441.422 237.827 448.172 245.796C454.922 253.671 463.734 257.609 474.609 257.609C483.328 257.609 490.594 255.499 496.406 251.281C502.312 247.062 506.391 240.734 508.641 232.296L546.047 236.374C542.578 253.156 534.422 266.234 521.578 275.609C508.828 284.984 493.312 289.671 475.031 289.671ZM670.922 286.999L624.375 226.249H615.938V286.999H575.016V70.9993H615.938V198.124H623.531L668.953 142.437H714.797L657.844 209.515L720.141 286.999H670.922ZM871.312 212.609L870.891 222.312H763.734C764.578 233.843 768.422 242.656 775.266 248.749C782.109 254.843 790.594 257.89 800.719 257.89C808.031 257.89 814.359 256.249 819.703 252.968C825.141 249.593 829.219 244.718 831.938 238.343L869.062 243.827C864.281 258.359 855.844 269.656 843.75 277.718C831.656 285.781 817.406 289.812 801 289.812C777.375 289.812 758.578 283.202 744.609 269.984C730.734 256.671 723.797 238.249 723.797 214.718C723.797 191.374 730.781 172.999 744.75 159.593C758.719 146.093 777.047 139.343 799.734 139.343C821.297 139.343 838.594 145.484 851.625 157.765C864.656 170.046 871.219 188.327 871.312 212.609ZM800.016 168.031C780.328 168.031 768.609 177.312 764.859 195.874H831.234C830.203 186.874 826.875 179.984 821.25 175.202C815.625 170.421 808.547 168.031 800.016 168.031ZM1166.2 179.702C1191.7 186.734 1204.45 203.515 1204.45 230.046C1204.45 247.671 1199.06 261.593 1188.28 271.812C1177.5 281.937 1161.66 286.999 1140.75 286.999H1057.08V83.7961H1122.89C1144.55 83.7961 1161.09 88.718 1172.53 98.5618C1184.06 108.312 1189.83 121.952 1189.83 139.484C1189.83 148.577 1187.81 156.64 1183.78 163.671C1179.84 170.609 1173.98 175.952 1166.2 179.702ZM1123.31 118.812H1097.72V166.624H1125.14C1133.77 166.624 1140.23 164.374 1144.55 159.874C1148.86 155.374 1151.02 149.468 1151.02 142.156C1151.02 135.124 1148.67 129.499 1143.98 125.281C1139.3 120.968 1132.41 118.812 1123.31 118.812ZM1132.88 250.859C1143.47 250.859 1151.2 248.468 1156.08 243.687C1161.05 238.906 1163.53 232.812 1163.53 225.406C1163.53 217.812 1161.05 211.531 1156.08 206.562C1151.11 201.593 1143.09 199.109 1132.03 199.109H1097.72V250.859H1132.88ZM1275.61 165.359C1279.45 158.609 1285.78 152.843 1294.59 148.062C1303.41 143.187 1312.83 140.749 1322.86 140.749V176.89C1306.92 176.89 1295.39 179.796 1288.27 185.609C1281.14 191.421 1277.58 201.734 1277.58 216.546V286.999H1236.8V142.437H1275.61V165.359ZM1464.47 247.765C1464.47 263.14 1465.64 274.906 1467.98 283.062V286.999H1430.16L1426.92 271.249C1421.77 277.437 1415.02 282.077 1406.67 285.171C1398.33 288.265 1389.61 289.812 1380.52 289.812C1375.73 289.812 1371.23 289.39 1367.02 288.546C1362.8 287.702 1358.72 286.296 1354.78 284.327C1350.94 282.265 1347.61 279.734 1344.8 276.734C1341.98 273.734 1339.73 269.937 1338.05 265.343C1336.36 260.656 1335.52 255.406 1335.52 249.593C1335.52 243.781 1336.41 238.577 1338.19 233.984C1339.97 229.296 1342.31 225.359 1345.22 222.171C1348.12 218.984 1351.92 216.124 1356.61 213.593C1361.3 211.062 1366.08 208.999 1370.95 207.406C1375.83 205.812 1381.55 204.312 1388.11 202.906L1411.88 197.562C1416.94 196.343 1420.5 194.843 1422.56 193.062C1424.72 191.187 1425.8 188.749 1425.8 185.749C1425.8 179.281 1423.41 174.64 1418.62 171.827C1413.94 169.015 1408.22 167.609 1401.47 167.609C1384.88 167.609 1375.45 174.968 1373.2 189.687L1337.34 183.218C1340.34 168.312 1347.33 157.343 1358.3 150.312C1369.27 143.187 1384.41 139.624 1403.72 139.624C1444.22 139.624 1464.47 157.015 1464.47 191.796V247.765ZM1393.17 262.39C1403.39 262.39 1411.73 258.921 1418.2 251.984C1424.67 244.952 1427.91 234.593 1427.91 220.906L1393.59 230.609C1387.31 232.109 1382.48 234.077 1379.11 236.515C1375.83 238.952 1374.19 242.421 1374.19 246.921C1374.19 251.89 1375.97 255.734 1379.53 258.452C1383.09 261.077 1387.64 262.39 1393.17 262.39ZM1555.88 286.999C1541.81 286.999 1530.94 283.109 1523.25 275.327C1515.56 267.452 1511.72 256.296 1511.72 241.859V173.515H1483.31V142.437H1492.45C1500.61 142.437 1506.61 140.421 1510.45 136.39C1514.3 132.359 1516.22 125.187 1516.22 114.874V95.7493H1552.78V142.437H1582.59V173.515H1552.78V237.499C1552.78 249.968 1558.36 256.202 1569.52 256.202H1582.59V286.999H1555.88ZM1639.27 289.812C1632.98 289.812 1627.55 287.562 1622.95 283.062C1618.45 278.468 1616.2 273.031 1616.2 266.749C1616.2 260.374 1618.45 254.89 1622.95 250.296C1627.55 245.702 1632.98 243.406 1639.27 243.406C1645.64 243.406 1651.12 245.702 1655.72 250.296C1660.31 254.89 1662.61 260.374 1662.61 266.749C1662.61 273.031 1660.31 278.468 1655.72 283.062C1651.12 287.562 1645.64 289.812 1639.27 289.812Z" fill="white"/>
<path d="M1013.47 75.372L1053.79 79.1608L1033.58 294.214L995.361 290.622L996.144 271.769C991.379 278.383 984.752 283.269 976.263 286.426C967.877 289.499 958.736 290.571 948.842 289.641C939.322 288.746 930.524 286.178 922.448 281.935C914.372 277.692 907.454 272.145 901.694 265.295C896.037 258.361 891.836 249.962 889.09 240.099C886.344 230.237 885.511 219.565 886.59 208.084C888.019 192.87 892.447 179.821 899.873 168.937C907.307 157.959 916.481 150.017 927.394 145.11C938.401 140.212 950.251 138.359 962.945 139.552C972.559 140.455 981.073 143.044 988.487 147.319C996.003 151.51 1001.56 157.022 1005.15 163.857L1013.47 75.372ZM961.227 257.047C972.148 258.073 981.561 255.097 989.467 248.119C997.467 241.149 1002.05 231.457 1003.22 219.043C1004.38 206.629 1001.69 196.253 995.124 187.915C988.572 179.484 979.882 174.76 969.055 173.742C958.041 172.707 948.538 175.628 940.547 182.504C932.65 189.39 928.105 199.179 926.912 211.873C925.728 224.474 928.374 234.892 934.851 243.128C941.421 251.373 950.213 256.012 961.227 257.047Z" fill="white"/>
</svg>
