<svg version="1.2" baseProfile="tiny-ps" xmlns="http://www.w3.org/2000/svg" viewBox="0 0 114 398" width="114" height="398">
	<title>New Project (1)-svg</title>
	<style>
		tspan { white-space:pre }
		.shp0 { fill: #000000 } 
	</style>
	<g id="Layer">
		<path id="Layer" class="shp0" d="M22 126.7C22 127.2 22.8 129.6 23.7 132.2L25.4 137L49 137C62.1 137 76.2 136.7 80.4 136.3C88.1 135.7 88.1 135.7 90.1 131.9C91.1 129.8 92 127.6 92 127C92 126.3 80.6 126 57 126C37.8 126 22 126.3 22 126.7Z" />
		<path id="Layer" class="shp0" d="M34 141.2C34 141.9 34.9 157.5 36 176C37.1 194.4 40.2 248.4 43 296C45.7 343.6 48.2 386 48.6 390.2L49.2 398L56.6 398L63.9 398L64.4 394.7C64.7 393 65.2 387 65.5 381.5C65.8 376 69.2 320.8 73 258.8C76.9 196.8 80 144.7 80 143L80 140L57 140C39.5 140 34 140.3 34 141.2Z" />
	</g>
</svg>