<svg version="1.2" baseProfile="tiny-ps" xmlns="http://www.w3.org/2000/svg" viewBox="0 0 114 398" width="114" height="398">
	<title>New Project (1)-svg</title>
	<style>
		tspan { white-space:pre }
		.shp0 { fill: #ffa600 } 
		.shp1 { fill: #000000 } 
	</style>
	<g id="Layer">
		<path id="Layer" class="shp0" d="M49 11.8C49 24.6 44 39.3 34.7 54C25.8 68 23.3 73.2 21.9 80C20.3 88.2 21.3 98.8 24.2 104.8C27.5 111.6 36.9 121 40.3 121C43.6 121 43.6 120.8 40.8 115.1C39.6 112.6 38.4 108.2 38.2 105.3C37.7 99.2 40.4 91.5 49.5 72.8L54.8 62.2L57.5 68.6C59 72.2 62 77.8 64.1 81.1C71.3 92.2 73.3 97 73.8 104.6C74.1 110 73.8 112.6 72.6 115.1C69.3 121.7 71.9 123 78.7 118.1C90.8 109.3 95.6 92.9 91.6 74C89.9 66 83.4 51.6 80.1 48.6C77.1 45.9 75 47.2 75 51.9C75 54.1 74.5 57.1 73.9 58.7L72.8 61.5L71 59.2C69.8 57.8 69 54.6 68.6 50.2C67.4 35.7 66 27.9 63.7 22.5C60.8 15.7 53.7 7 50.9 7C49.3 7 49 7.7 49 11.8Z" />
		<path id="Layer" class="shp1" d="M22 126.7C22 127.2 22.8 129.6 23.7 132.2L25.4 137L49 137C62.1 137 76.2 136.7 80.4 136.3C88.1 135.7 88.1 135.7 90.1 131.9C91.1 129.8 92 127.6 92 127C92 126.3 80.6 126 57 126C37.8 126 22 126.3 22 126.7Z" />
		<path id="Layer" class="shp1" d="M34 141.2C34 141.9 34.9 157.5 36 176C37.1 194.4 40.2 248.4 43 296C45.7 343.6 48.2 386 48.6 390.2L49.2 398L56.6 398L63.9 398L64.4 394.7C64.7 393 65.2 387 65.5 381.5C65.8 376 69.2 320.8 73 258.8C76.9 196.8 80 144.7 80 143L80 140L57 140C39.5 140 34 140.3 34 141.2Z" />
	</g>
</svg>